# xmcd
#
# Track frame offsets:
#	150
#	11645
#	22695
#	34427
#	49652
#	60965
#	74402
#	84697
#	95880
#	111115
#	121892
#	135480
#
# Disc length: 1953 seconds
#
# Revision: 0
# Processed by: cddbd v1.5.2PL0 Copyright (c) Steve Scherf et al.
# Submitted via: EasyCDDAExtractor 16.0.6.1
#
DISCID=9b079f0c
DTITLE=Καραθανάση Ξανθίππη-Μάριος - Σμυρνέϊκα τραγούδια-LP 1972-Ξ. Καραθανάση-
DTITLE=Μάριος
DYEAR=1994
DGENRE=Παραδοσιακή
TTITLE0=Μάριος - Μιά Σμυρνιά [καλαματιανός]
TTITLE1=Καραθανάση Ξανθίππη - Αλατσατιανή [απτάλικος]
TTITLE2=Καραθανάση Ξανθίππη - Εγγλεζίτσα (Αγγλιδούλα) [μπάλος]
TTITLE3=Μάριος-χορωδία - Γιατί να μη χαρώ [τσιφτετέλι]
TTITLE4=Καραθανάση Ξανθίππη - Από ξένο τόπο [γοργό τσιφτετέλι]
TTITLE5=Μάριος - Κορδελιώτισσα [καλαματιανός]
TTITLE6=Καραθανάση Ξανθίππη-χορωδία - Αραμπάς περνά [καρσιλαμάς]
TTITLE7=Μάριος - Λαλεδάκια τζιβαέρι μου (Ανεμώνες) [ζεϊμπέκικος]
TTITLE8=Άνευ ερμηνευτού - Σμυρνέϊκος κασάπικος [ορχηστρικό]
TTITLE9=Καραθανάση Ξανθίππη - Γιαρούμπι [μπάλος]
TTITLE10=Μάριος - Χάϊδω [συρτός]
TTITLE11=Χορωδία - Δε σε θέλω πια [κασάπικος γοργός]
EXTD=
EXTT0=
EXTT1=
EXTT2=
EXTT3=
EXTT4=
EXTT5=
EXTT6=
EXTT7=
EXTT8=
EXTT9=
EXTT10=
EXTT11=
PLAYORDER=
